<svg width="40" height="40" viewBox="0 0 40 40" fill="none" xmlns="http://www.w3.org/2000/svg">
<path fill-rule="evenodd" clip-rule="evenodd" d="M19.9995 2.31934C13.7237 2.31934 8.5957 7.53316 8.5957 14.0116C8.5957 15.5346 9.28876 17.7411 10.4452 20.3031C11.5849 22.8277 13.1127 25.5672 14.6529 28.1089C16.191 30.6474 17.7308 32.971 18.8868 34.6611C19.3183 35.2919 19.6959 35.8338 19.9995 36.265C20.3032 35.8338 20.6808 35.2919 21.1123 34.6611C22.2683 32.971 23.8081 30.6474 25.3462 28.1089C26.8864 25.5672 28.4142 22.8277 29.5539 20.3031C30.7103 17.7411 31.4034 15.5346 31.4034 14.0116C31.4034 7.53316 26.2754 2.31934 19.9995 2.31934ZM19.9995 37.986C19.1923 38.5762 19.1922 38.5761 19.192 38.5759L19.1824 38.5626L19.1549 38.5248C19.1307 38.4916 19.0953 38.4426 19.0492 38.3787C18.957 38.2509 18.8223 38.0632 18.6513 37.8223C18.3091 37.3406 17.8212 36.6457 17.2361 35.7902C16.0664 34.0802 14.5052 31.7245 12.9424 29.1454C11.3816 26.5697 9.80848 23.7536 8.62236 21.126C7.45312 18.5357 6.5957 15.9932 6.5957 14.0116C6.5957 6.47218 12.576 0.319336 19.9995 0.319336C27.4231 0.319336 33.4034 6.47218 33.4034 14.0116C33.4034 15.9932 32.546 18.5357 31.3767 21.126C30.1906 23.7536 28.6175 26.5697 27.0567 29.1454C25.4939 31.7245 23.9327 34.0802 22.763 35.7902C22.1779 36.6457 21.69 37.3406 21.3478 37.8223C21.1768 38.0632 21.0421 38.2509 20.9499 38.3787C20.9038 38.4426 20.8684 38.4916 20.8442 38.5248L20.8167 38.5626L20.8076 38.5751C20.8074 38.5753 20.8068 38.5762 19.9995 37.986ZM19.9995 37.986L20.8068 38.5762L19.9995 39.6803L19.192 38.5759L19.9995 37.986Z" fill="#0D0D0D"/>
<path fill-rule="evenodd" clip-rule="evenodd" d="M16.7559 10.0284C17.6121 9.1523 18.7783 8.65576 19.9993 8.65576C21.2203 8.65576 22.3865 9.1523 23.2427 10.0284C24.0981 10.9037 24.5747 12.0861 24.5747 13.3143C24.5747 14.5426 24.0981 15.725 23.2427 16.6003C22.3865 17.4764 21.2203 17.9729 19.9993 17.9729C18.7783 17.9729 17.6121 17.4764 16.7559 16.6003C15.9004 15.725 15.4238 14.5426 15.4238 13.3143C15.4238 12.0861 15.9004 10.9037 16.7559 10.0284ZM19.9993 10.6558C19.3237 10.6558 18.6711 10.9301 18.1862 11.4263C17.7006 11.9232 17.4238 12.6019 17.4238 13.3143C17.4238 14.0268 17.7006 14.7055 18.1862 15.2024C18.6711 15.6985 19.3237 15.9729 19.9993 15.9729C20.6748 15.9729 21.3274 15.6985 21.8123 15.2024C22.2979 14.7055 22.5747 14.0268 22.5747 13.3143C22.5747 12.6019 22.2979 11.9232 21.8123 11.4263C21.3274 10.9301 20.6748 10.6558 19.9993 10.6558Z" fill="#0D0D0D"/>
</svg>
