<svg width="40" height="40" viewBox="0 0 40 40" fill="none" xmlns="http://www.w3.org/2000/svg">
<path fill-rule="evenodd" clip-rule="evenodd" d="M8.09417 3.78385C7.62985 4.11012 6.41309 5.07244 5.32368 6.11862C4.77794 6.64271 4.2912 7.16222 3.95112 7.61414C3.78091 7.84033 3.66467 8.02703 3.59552 8.1709C3.5503 8.26499 3.53786 8.31474 3.53475 8.32737C3.53491 8.33261 3.53508 8.33792 3.53525 8.3433C3.55543 8.9772 3.60757 10.6155 4.90549 13.3797C6.24309 16.2285 8.9194 20.3037 14.3048 25.6923C19.6935 31.0811 23.7687 33.7582 26.617 35.0957C29.3791 36.3928 31.0162 36.4449 31.6496 36.4651C31.6547 36.4652 31.6598 36.4654 31.6648 36.4656C31.6774 36.4624 31.7275 36.4499 31.8222 36.4043C31.9663 36.3348 32.1532 36.2183 32.3794 36.048C32.8314 35.7077 33.3509 35.2209 33.8747 34.6752C34.9225 33.5837 35.8845 32.3656 36.2063 31.9037L36.2075 31.9019C36.4378 31.5728 36.4807 31.2909 36.4648 31.1088C36.4496 30.935 36.3887 30.8728 36.3899 30.8715C36.39 30.8715 36.3898 30.8715 36.3899 30.8715C35.8221 30.4774 29.7516 26.4395 29.0458 26.0085C29.0464 26.0089 29.0466 26.0089 29.0458 26.0085C29.0376 26.005 28.9561 25.9698 28.758 25.9915C28.5493 26.0144 28.2785 26.095 27.9833 26.2507C27.6154 26.4448 26.7024 26.9593 25.8634 27.4359C25.4479 27.6719 25.0563 27.8953 24.7684 28.0598L24.2977 28.3291L23.7998 27.4619C23.2929 28.3238 23.2926 28.3237 23.2923 28.3235L23.2904 28.3224L23.2873 28.3206L23.2788 28.3155L23.253 28.2998C23.2319 28.2869 23.203 28.2689 23.1663 28.2454C23.0928 28.1984 22.988 28.1295 22.852 28.0357C22.58 27.8479 22.1831 27.5599 21.6616 27.1464C20.6187 26.3195 19.0771 24.9899 17.04 22.9545C15.006 20.9189 13.6774 19.3773 12.8516 18.3347C12.4386 17.8133 12.1511 17.4164 11.9637 17.1444C11.8699 17.0083 11.8012 16.9035 11.7543 16.83C11.7309 16.7932 11.7129 16.7643 11.6999 16.7431L11.6843 16.7173L11.6792 16.7088L11.6773 16.7057L11.6766 16.7044C11.6764 16.7041 11.6759 16.7032 12.5385 16.1973L11.6706 15.7006L11.9396 15.2295C12.1036 14.9417 12.3265 14.5501 12.5619 14.1347C13.0375 13.2953 13.5498 12.3834 13.7416 12.0168L13.7447 12.0109C13.9027 11.7137 13.9856 11.441 14.0093 11.2322C14.0318 11.0345 13.9958 10.9609 13.9964 10.9606C13.9964 10.9606 13.9963 10.9605 13.9964 10.9606C13.9965 10.9608 13.997 10.9615 13.9976 10.9625M12.5385 16.1973L11.6706 15.7006L11.3828 16.2035L11.6759 16.7032L12.5385 16.1973ZM13.9964 10.9606C13.5468 10.2521 9.53884 4.17543 9.13238 3.61306C9.13325 3.61429 9.13363 3.61493 9.1335 3.61506C9.13202 3.61655 9.06449 3.55234 8.88424 3.53538C8.69953 3.518 8.41948 3.55862 8.09417 3.78385M13.7133 16.1565C13.8753 16.3851 14.1061 16.6974 14.4194 17.0929C15.1929 18.0696 16.469 19.5535 18.4542 21.5403C20.4424 23.5269 21.9271 24.8045 22.9042 25.5793C23.2997 25.8929 23.612 26.1241 23.8407 26.2864C24.1222 26.1256 24.4885 25.9167 24.8756 25.6968C25.7027 25.2271 26.6481 24.6938 27.0503 24.4817C27.525 24.2313 28.0373 24.0585 28.5401 24.0034C29.0335 23.9493 29.5972 24.0018 30.0882 24.3016C30.8473 24.7652 37.0192 28.8716 37.544 29.2379L37.5451 29.2387C38.6461 30.0094 38.7756 31.7193 37.8468 33.0476C37.4598 33.6032 36.4306 34.9008 35.3175 36.0602C34.7606 36.6404 34.1569 37.2132 33.5825 37.6457C33.2955 37.8618 32.9934 38.0601 32.6901 38.2061C32.4 38.3459 32.0283 38.4776 31.6257 38.4653L31.6176 38.4651C30.8297 38.4393 28.8969 38.3759 25.7669 36.906C22.6564 35.4453 18.396 32.612 12.8906 27.1065C7.38844 21.6011 4.55578 17.3406 3.09512 14.2298C1.62427 11.0972 1.56102 9.16322 1.53523 8.37453L1.5351 8.37054C1.5351 8.37051 1.5351 8.37056 1.5351 8.37054C1.52189 7.96724 1.65337 7.59487 1.79292 7.30452C1.93882 7.00096 2.13703 6.69863 2.35306 6.41156C2.78545 5.83697 3.35832 5.23312 3.93838 4.67607C5.09882 3.56168 6.3963 2.53211 6.94739 2.14529L6.9516 2.14233C8.29834 1.20733 9.98983 1.38406 10.7495 2.43623C11.1871 3.04 15.2393 9.18624 15.6862 9.89079M13.7133 16.1565C13.8738 15.8748 14.0825 15.5081 14.3021 15.1205C14.7693 14.2959 15.3001 13.3519 15.5122 12.9468C15.7627 12.4748 15.9392 11.9624 15.9965 11.4582C16.0528 10.9637 16.002 10.3883 15.6862 9.89079M23.7998 27.4619L23.2923 28.3235L23.7934 28.6182L24.2977 28.3291L23.7998 27.4619ZM3.53403 8.30507C3.53402 8.30482 3.53403 8.30533 3.53403 8.30507Z" fill="#0D0D0D"/>
</svg>
